<svg width="160" height="45" viewBox="0 0 160 45" fill="none" xmlns="http://www.w3.org/2000/svg">
<path d="M37 7.31364C28.1634 7.31364 21 14.4771 21 23.3136C29.8366 23.3136 37 16.1502 37 7.31364Z" fill="#FF6E40"/>
<path d="M37 37.3156C28.1634 37.3156 21 30.1522 21 21.3156C29.8366 21.3156 37 28.479 37 37.3156Z" fill="#FF6E40"/>
<path d="M21 23.3156C12.1634 23.3156 5 16.1522 5 7.3156C13.8366 7.3156 21 14.479 21 23.3156Z" fill="#FF6E40"/>
<path d="M21 21.3136C12.1634 21.3136 5 28.4771 5 37.3136C13.8366 37.3136 21 30.1502 21 21.3136Z" fill="#FF6E40"/>
<path d="M42.6263 22.6289C36.3778 16.3806 26.2471 16.3806 19.9987 22.6289C26.2471 28.8773 36.3778 28.8773 42.6263 22.6289Z" fill="#FF6E40"/>
<path d="M42.6263 22.6289C36.3778 16.3806 26.2471 16.3806 19.9987 22.6289C26.2471 28.8773 36.3778 28.8773 42.6263 22.6289Z" fill="#FF6E40"/>
<path d="M22.6275 22.6292C16.3791 16.3809 6.24842 16.3809 0 22.6292C6.24842 28.8776 16.3791 28.8776 22.6275 22.6292Z" fill="#FF6E40"/>
<path d="M21.3138 22.6273C15.0653 16.3789 15.0653 6.24835 21.3138 0C27.5622 6.24835 27.5622 16.3789 21.3138 22.6273Z" fill="#FF6E40"/>
<path d="M21.3138 22.002C15.0653 28.2503 15.0653 38.3809 21.3138 44.6292C27.5622 38.3809 27.5622 28.2503 21.3138 22.002Z" fill="#FF6E40"/>
<path d="M64.666 16.4986C65.3593 16.4986 65.9726 16.6 66.506 16.8026C67.05 17.0053 67.562 17.3093 68.042 17.7146L66.794 19.2026C66.4633 18.9466 66.138 18.7546 65.818 18.6266C65.498 18.4986 65.1566 18.4346 64.794 18.4346C64.0473 18.4346 63.4553 18.7493 63.018 19.3786C62.5913 20.008 62.378 20.9786 62.378 22.2906C62.378 23.5813 62.5913 24.5413 63.018 25.1706C63.4553 25.7893 64.058 26.0986 64.826 26.0986C65.2313 26.0986 65.5993 26.024 65.93 25.8746C66.2606 25.7146 66.618 25.4906 67.002 25.2026L68.17 26.7066C67.754 27.1226 67.2473 27.464 66.65 27.7306C66.0633 27.9973 65.4126 28.1306 64.698 28.1306C63.674 28.1306 62.7833 27.9066 62.026 27.4586C61.2686 27.0106 60.6766 26.3493 60.25 25.4746C59.834 24.5893 59.626 23.528 59.626 22.2906C59.626 21.0853 59.8393 20.0453 60.266 19.1706C60.7033 18.296 61.3006 17.6346 62.058 17.1866C62.826 16.728 63.6953 16.4986 64.666 16.4986Z" fill="#EFE7E2"/>
<path d="M73.5086 16.4986C75.0873 16.4986 76.3139 17.0053 77.1886 18.0186C78.0739 19.032 78.5166 20.4613 78.5166 22.3066C78.5166 23.512 78.3139 24.552 77.9086 25.4266C77.5139 26.3013 76.9379 26.9733 76.1806 27.4426C75.4339 27.9013 74.5433 28.1306 73.5086 28.1306C72.4739 28.1306 71.5833 27.9013 70.8366 27.4426C70.0899 26.984 69.5139 26.3226 69.1086 25.4586C68.7139 24.584 68.5166 23.5333 68.5166 22.3066C68.5166 21.112 68.7139 20.0773 69.1086 19.2026C69.5139 18.328 70.0899 17.6613 70.8366 17.2026C71.5833 16.7333 72.4739 16.4986 73.5086 16.4986ZM73.5086 18.4186C72.7513 18.4186 72.1859 18.728 71.8126 19.3466C71.4499 19.9546 71.2686 20.9413 71.2686 22.3066C71.2686 23.672 71.4553 24.664 71.8286 25.2826C72.2019 25.9013 72.7619 26.2106 73.5086 26.2106C74.2766 26.2106 74.8419 25.9066 75.2046 25.2986C75.5779 24.68 75.7646 23.6826 75.7646 22.3066C75.7646 20.9306 75.5779 19.9386 75.2046 19.3306C74.8313 18.7226 74.2659 18.4186 73.5086 18.4186Z" fill="#EFE7E2"/>
<path d="M84.5711 16.4986C86.1498 16.4986 87.3764 17.0053 88.2511 18.0186C89.1364 19.032 89.5791 20.4613 89.5791 22.3066C89.5791 23.512 89.3764 24.552 88.9711 25.4266C88.5764 26.3013 88.0004 26.9733 87.2431 27.4426C86.4964 27.9013 85.6058 28.1306 84.5711 28.1306C83.5364 28.1306 82.6458 27.9013 81.8991 27.4426C81.1524 26.984 80.5764 26.3226 80.1711 25.4586C79.7764 24.584 79.5791 23.5333 79.5791 22.3066C79.5791 21.112 79.7764 20.0773 80.1711 19.2026C80.5764 18.328 81.1524 17.6613 81.8991 17.2026C82.6458 16.7333 83.5364 16.4986 84.5711 16.4986ZM84.5711 18.4186C83.8138 18.4186 83.2484 18.728 82.8751 19.3466C82.5124 19.9546 82.3311 20.9413 82.3311 22.3066C82.3311 23.672 82.5178 24.664 82.8911 25.2826C83.2644 25.9013 83.8244 26.2106 84.5711 26.2106C85.3391 26.2106 85.9044 25.9066 86.2671 25.2986C86.6404 24.68 86.8271 23.6826 86.8271 22.3066C86.8271 20.9306 86.6404 19.9386 86.2671 19.3306C85.8938 18.7226 85.3284 18.4186 84.5711 18.4186Z" fill="#EFE7E2"/>
<path d="M93.7776 16.7706V25.7786H98.0976L97.8256 27.8586H91.1536V16.7706H93.7776Z" fill="#EFE7E2"/>
<path d="M109.058 21.9866C109.794 22.1253 110.391 22.3973 110.85 22.8026C111.319 23.208 111.554 23.816 111.554 24.6266C111.554 25.8106 111.127 26.648 110.274 27.1386C109.431 27.6186 108.247 27.8586 106.722 27.8586H103.154V16.7706H106.29C107.847 16.7706 109.036 16.9946 109.858 17.4426C110.679 17.88 111.09 18.6 111.09 19.6026C111.09 20.2533 110.892 20.7813 110.498 21.1866C110.114 21.5813 109.634 21.848 109.058 21.9866ZM105.778 18.6266V21.2026H106.754C107.863 21.2026 108.418 20.7546 108.418 19.8586C108.418 19.4106 108.268 19.096 107.97 18.9146C107.671 18.7226 107.196 18.6266 106.546 18.6266H105.778ZM106.738 25.9546C107.431 25.9546 107.954 25.8533 108.306 25.6506C108.668 25.4373 108.85 25.048 108.85 24.4826C108.85 23.4586 108.21 22.9466 106.93 22.9466H105.778V25.9546H106.738Z" fill="#EFE7E2"/>
<path d="M118.79 27.8586L118.214 25.4746H114.982L114.422 27.8586H111.702L115.046 16.7706H118.23L121.574 27.8586H118.79ZM115.43 23.5706H117.766L116.598 18.6746L115.43 23.5706Z" fill="#EFE7E2"/>
<path d="M126.036 23.6186H125.012V27.8586H122.388V16.7706H126.02C127.535 16.7706 128.671 17.048 129.428 17.6026C130.196 18.1573 130.58 19.0053 130.58 20.1466C130.58 20.8613 130.409 21.4586 130.068 21.9386C129.727 22.408 129.188 22.808 128.452 23.1386L131.268 27.8586H128.308L126.036 23.6186ZM125.012 21.8106H126.116C126.703 21.8106 127.14 21.6773 127.428 21.4106C127.727 21.144 127.876 20.7226 127.876 20.1466C127.876 19.6133 127.716 19.224 127.396 18.9786C127.087 18.7333 126.607 18.6106 125.956 18.6106H125.012V21.8106Z" fill="#EFE7E2"/>
<path d="M138.167 21.9866C138.903 22.1253 139.5 22.3973 139.959 22.8026C140.428 23.208 140.663 23.816 140.663 24.6266C140.663 25.8106 140.236 26.648 139.383 27.1386C138.54 27.6186 137.356 27.8586 135.831 27.8586H132.263V16.7706H135.399C136.956 16.7706 138.146 16.9946 138.967 17.4426C139.788 17.88 140.199 18.6 140.199 19.6026C140.199 20.2533 140.002 20.7813 139.607 21.1866C139.223 21.5813 138.743 21.848 138.167 21.9866ZM134.887 18.6266V21.2026H135.863C136.972 21.2026 137.527 20.7546 137.527 19.8586C137.527 19.4106 137.378 19.096 137.079 18.9146C136.78 18.7226 136.306 18.6266 135.655 18.6266H134.887ZM135.847 25.9546C136.54 25.9546 137.063 25.8533 137.415 25.6506C137.778 25.4373 137.959 25.048 137.959 24.4826C137.959 23.4586 137.319 22.9466 136.039 22.9466H134.887V25.9546H135.847Z" fill="#EFE7E2"/>
<path d="M148.938 16.7706L148.666 18.6426H144.762V21.2986H148.17V23.1386H144.762V25.9706H148.938V27.8586H142.138V16.7706H148.938Z" fill="#EFE7E2"/>
<path d="M154.208 23.6186H153.184V27.8586H150.56V16.7706H154.192C155.707 16.7706 156.843 17.048 157.6 17.6026C158.368 18.1573 158.752 19.0053 158.752 20.1466C158.752 20.8613 158.581 21.4586 158.24 21.9386C157.899 22.408 157.36 22.808 156.624 23.1386L159.44 27.8586H156.48L154.208 23.6186ZM153.184 21.8106H154.288C154.875 21.8106 155.312 21.6773 155.6 21.4106C155.899 21.144 156.048 20.7226 156.048 20.1466C156.048 19.6133 155.888 19.224 155.568 18.9786C155.259 18.7333 154.779 18.6106 154.128 18.6106H153.184V21.8106Z" fill="#EFE7E2"/>
</svg>
